<?xml version="1.0" encoding="UTF-8" standalone="no"?>
<!DOCTYPE svg PUBLIC "-//W3C//DTD SVG 1.1//EN"
 "http://www.w3.org/Graphics/SVG/1.1/DTD/svg11.dtd">
<!-- Generated by graphviz version 2.28.0 (20110507.0327)
 -->
<!-- Title: G Pages: 1 -->
<svg width="394pt" height="96pt"
 viewBox="0.00 0.00 394.00 96.00" xmlns="http://www.w3.org/2000/svg" xmlns:xlink="http://www.w3.org/1999/xlink">
<g id="graph1" class="graph" transform="scale(1 1) rotate(0) translate(4 92)">
<title>G</title>
<polygon fill="white" stroke="white" points="-4,5 -4,-92 391,-92 391,5 -4,5"/>
<g id="graph2" class="cluster"><title>cluster_global</title>
<polyline fill="none" stroke="gray" points="174,-8 366,-8 "/>
<path fill="none" stroke="gray" d="M366,-8C372,-8 378,-14 378,-20"/>
<polyline fill="none" stroke="gray" points="378,-20 378,-68 "/>
<path fill="none" stroke="gray" d="M378,-68C378,-74 372,-80 366,-80"/>
<polyline fill="none" stroke="gray" points="366,-80 174,-80 "/>
<path fill="none" stroke="gray" d="M174,-80C168,-80 162,-74 162,-68"/>
<polyline fill="none" stroke="gray" points="162,-68 162,-20 "/>
<path fill="none" stroke="gray" d="M162,-20C162,-14 168,-8 174,-8"/>
<text text-anchor="middle" x="270" y="-67.2" font-family="Times New Roman,serif" font-size="11.00" fill="gray">global</text>
</g>
<!-- \\block_ejsapp_collab_session -->
<g id="node2" class="node"><title>\\block_ejsapp_collab_session</title>
<a xlink:href="block_ejsapp_collab_session.html" xlink:title="block_ejsapp_collab_session" target="_parent">
<polygon fill="none" stroke="black" points="369.5,-52 170.5,-52 170.5,-16 369.5,-16 369.5,-52"/>
<text text-anchor="middle" x="270" y="-31.2" font-family="Courier,monospace" font-size="11.00">block_ejsapp_collab_session</text>
</a>
</g>
<!-- \\block_list -->
<g id="node4" class="node"><title>\\block_list</title>
<ellipse fill="none" stroke="black" cx="49" cy="-34" rx="48.9926" ry="18"/>
<text text-anchor="middle" x="49" y="-30.3" font-family="Times New Roman,serif" font-size="14.00" fill="gray">\block_list</text>
</g>
<!-- \\block_ejsapp_collab_session&#45;&gt;\\block_list -->
<g id="edge3" class="edge"><title>\\block_ejsapp_collab_session&#45;&gt;\\block_list</title>
<path fill="none" stroke="black" d="M170.391,-34C149.027,-34 127.104,-34 107.919,-34"/>
<polygon fill="none" stroke="black" points="107.86,-30.5001 97.8596,-34 107.86,-37.5001 107.86,-30.5001"/>
</g>
</g>
</svg>
