<?xml version="1.0" encoding="UTF-8" standalone="no"?>
<!DOCTYPE svg PUBLIC "-//W3C//DTD SVG 1.1//EN"
 "http://www.w3.org/Graphics/SVG/1.1/DTD/svg11.dtd">
<!-- Generated by graphviz version 2.38.0 (20140413.2041)
 -->
<!-- Title: G Pages: 1 -->
<svg width="510pt" height="150pt"
 viewBox="0.00 0.00 510.19 150.00" xmlns="http://www.w3.org/2000/svg" xmlns:xlink="http://www.w3.org/1999/xlink">
<g id="graph0" class="graph" transform="scale(1 1) rotate(0) translate(4 146)">
<title>G</title>
<polygon fill="white" stroke="none" points="-4,4 -4,-146 506.187,-146 506.187,4 -4,4"/>
<g id="clust1" class="cluster"><title>cluster_Global</title>
<path fill="none" stroke="gray" d="M224.187,-8C224.187,-8 482.187,-8 482.187,-8 488.187,-8 494.187,-14 494.187,-20 494.187,-20 494.187,-122 494.187,-122 494.187,-128 488.187,-134 482.187,-134 482.187,-134 224.187,-134 224.187,-134 218.187,-134 212.187,-128 212.187,-122 212.187,-122 212.187,-20 212.187,-20 212.187,-14 218.187,-8 224.187,-8"/>
<text text-anchor="middle" x="353.187" y="-121.2" font-family="Times New Roman,serif" font-size="11.00" fill="gray">Global</text>
</g>
<!-- \\block_ejsapp_collab_session_edit_form -->
<g id="node1" class="node"><title>\\block_ejsapp_collab_session_edit_form</title>
<polygon fill="none" stroke="black" points="486.187,-106 220.187,-106 220.187,-70 486.187,-70 486.187,-106"/>
<text text-anchor="middle" x="353.187" y="-85.2" font-family="Courier,monospace" font-size="11.00">block_ejsapp_collab_session_edit_form</text>
</g>
<!-- \\block_edit_form -->
<g id="node3" class="node"><title>\\block_edit_form</title>
<ellipse fill="none" stroke="black" cx="74.0934" cy="-88" rx="74.187" ry="18"/>
<text text-anchor="middle" x="74.0934" y="-84.3" font-family="Times New Roman,serif" font-size="14.00" fill="gray">\block_edit_form</text>
</g>
<!-- \\block_ejsapp_collab_session_edit_form&#45;&gt;\\block_edit_form -->
<g id="edge1" class="edge"><title>\\block_ejsapp_collab_session_edit_form&#45;&gt;\\block_edit_form</title>
<path fill="none" stroke="black" d="M220.132,-88C199.122,-88 177.913,-88 158.442,-88"/>
<polygon fill="none" stroke="black" points="158.429,-84.5001 148.429,-88 158.429,-91.5001 158.429,-84.5001"/>
</g>
<!-- \\block_ejsapp_collab_session -->
<g id="node2" class="node"><title>\\block_ejsapp_collab_session</title>
<polygon fill="none" stroke="black" points="452.687,-52 253.687,-52 253.687,-16 452.687,-16 452.687,-52"/>
<text text-anchor="middle" x="353.187" y="-31.2" font-family="Courier,monospace" font-size="11.00">block_ejsapp_collab_session</text>
</g>
<!-- \\block_list -->
<g id="node4" class="node"><title>\\block_list</title>
<ellipse fill="none" stroke="black" cx="74.0934" cy="-34" rx="48.9926" ry="18"/>
<text text-anchor="middle" x="74.0934" y="-30.3" font-family="Times New Roman,serif" font-size="14.00" fill="gray">\block_list</text>
</g>
<!-- \\block_ejsapp_collab_session&#45;&gt;\\block_list -->
<g id="edge2" class="edge"><title>\\block_ejsapp_collab_session&#45;&gt;\\block_list</title>
<path fill="none" stroke="black" d="M253.323,-34C213.18,-34 168.183,-34 133.444,-34"/>
<polygon fill="none" stroke="black" points="133.009,-30.5001 123.009,-34 133.009,-37.5001 133.009,-30.5001"/>
</g>
</g>
</svg>
